<?xml version="1.0" encoding="iso-8859-1"?>
<!-- Uploaded to: SVG Repo, www.svgrepo.com, Generator: SVG Repo Mixer Tools -->
<!DOCTYPE svg PUBLIC "-//W3C//DTD SVG 1.1//EN" "http://www.w3.org/Graphics/SVG/1.1/DTD/svg11.dtd">
<svg fill="#000000" height="800px" width="800px" version="1.1" id="Capa_1" xmlns="http://www.w3.org/2000/svg" xmlns:xlink="http://www.w3.org/1999/xlink" 
	 viewBox="0 0 511 511" xml:space="preserve">
<g>
	<path d="M127.5,143h121.675c-0.76,2.706-1.175,5.555-1.175,8.5c0,4.142,3.358,7.5,7.5,7.5h128c4.142,0,7.5-3.358,7.5-7.5
		c0-17.369-14.131-31.5-31.5-31.5c-1.387,0-2.789,0.108-4.222,0.327C346.299,110.022,333.268,104,319.5,104
		s-26.799,6.022-35.778,16.327c-1.434-0.219-2.835-0.327-4.222-0.327c-6.445,0-12.442,1.949-17.439,5.284
		c-2.147-11.751-7.917-22.248-16.119-30.284H327.5c4.142,0,7.5-3.358,7.5-7.5c0-26.191-21.309-47.5-47.5-47.5
		c-11.859,0-22.976,4.337-31.73,12.298c-1.466-0.2-2.882-0.298-4.27-0.298c-16.921,0-31.106,11.904-34.643,27.775
		c-3.433-0.651-6.969-1.006-10.588-1.006c-14.429,0-27.94,5.38-38.486,15.237c-2.014-0.313-3.941-0.468-5.822-0.468
		C138.824,93.539,120,112.362,120,135.5C120,139.642,123.358,143,127.5,143z M251.5,67c1.475,0,3.04,0.218,4.926,0.687
		c2.652,0.656,5.453-0.178,7.31-2.184C270.008,58.73,278.447,55,287.5,55c15.34,0,28.232,10.683,31.626,25H232.42
		C235.42,72.395,242.842,67,251.5,67z M279.5,135c1.482,0,3.046,0.276,4.923,0.868c3.131,0.986,6.539-0.176,8.413-2.87
		C298.933,124.233,308.901,119,319.5,119s20.567,5.233,26.665,13.998c1.874,2.695,5.282,3.857,8.413,2.87
		c1.877-0.592,3.441-0.868,4.923-0.868c6.399,0,11.959,3.662,14.695,9h-109.39C267.541,138.662,273.101,135,279.5,135z
		 M161.961,108.539c1.96,0,4.019,0.285,6.479,0.896c2.651,0.66,5.454-0.177,7.311-2.183c8.051-8.694,18.889-13.482,30.518-13.482
		c20.45,0,37.512,14.788,41.056,34.231H136.061C139.318,116.771,149.696,108.539,161.961,108.539z"/>
	<path d="M510.905,262.363c0.06-2.283,0.095-4.571,0.095-6.863c0-68.247-26.577-132.408-74.834-180.666
		C387.908,26.577,323.747,0,255.5,0S123.092,26.577,74.834,74.834C26.577,123.092,0,187.253,0,255.5s26.577,132.408,74.834,180.666
		C123.092,484.423,187.253,511,255.5,511s132.408-26.577,180.666-74.834c45.966-45.966,72.242-106.365,74.635-170.975
		c0.125-0.544,0.198-1.109,0.198-1.691C511,263.113,510.961,262.735,510.905,262.363z M85.441,85.441
		C130.865,40.016,191.26,15,255.5,15s124.635,25.016,170.059,70.441C470.984,130.865,496,191.26,496,255.5
		c0,0.167-0.006,0.333-0.006,0.5H463v-8.5c0-4.142-3.358-7.5-7.5-7.5s-7.5,3.358-7.5,7.5v8.5h-17v-25h0.5
		c3.034,0,5.768-1.827,6.929-4.63c1.161-2.803,0.519-6.028-1.626-8.173l-32-32c-1.406-1.407-3.314-2.197-5.303-2.197h-80
		c-1.989,0-3.897,0.79-5.303,2.197l-26.92,26.92l-2.015-2.418c-1.425-1.71-3.536-2.699-5.762-2.699H263v-32.5
		c0-4.142-3.358-7.5-7.5-7.5s-7.5,3.358-7.5,7.5v0.5h-17v-0.5c0-4.142-3.358-7.5-7.5-7.5s-7.5,3.358-7.5,7.5v0.5h-65v-0.5
		c0-4.142-3.358-7.5-7.5-7.5s-7.5,3.358-7.5,7.5v0.5h-17v-0.5c0-4.142-3.358-7.5-7.5-7.5s-7.5,3.358-7.5,7.5V224H17.046
		C23.846,171.698,47.528,123.354,85.441,85.441z M494.769,280H431v-9h64.494C495.304,274.01,495.069,277.012,494.769,280z
		 M479.248,344H431v-49h61.776C490.006,311.861,485.466,328.267,479.248,344z M463.727,376.011c-0.076-0.002-0.15-0.011-0.227-0.011
		h-416c-0.076,0-0.151,0.009-0.227,0.011c-3.228-5.557-6.233-11.228-8.994-17.011h434.44
		C469.96,364.783,466.955,370.455,463.727,376.011z M447.776,400.014c-0.092-0.003-0.183-0.014-0.276-0.014h-384
		c-0.093,0-0.184,0.01-0.276,0.014c-2.235-2.96-4.394-5.966-6.481-9.014h397.515C452.17,394.048,450.011,397.054,447.776,400.014z
		 M15,255.5c0-5.532,0.199-11.032,0.567-16.5H104v17H15.5c-0.167,0-0.33,0.014-0.494,0.025C15.006,255.85,15,255.675,15,255.5z
		 M143.5,199c4.142,0,7.5-3.358,7.5-7.5V191h65v0.5c0,4.142,3.358,7.5,7.5,7.5s7.5-3.358,7.5-7.5V191h17v17h-16.5H119v-17h17v0.5
		C136,195.642,139.358,199,143.5,199z M416,231v113h-97v-73.027c0.168,0.011,0.335,0.027,0.504,0.027
		c1.693,0,3.396-0.57,4.797-1.738c3.182-2.652,3.612-7.381,0.96-10.563L302.179,231H416z M305.606,216l17-17h73.787l17,17H305.606z
		 M207,344v-73h97v73H207z M119,344V223h96.487l-29.749,35.699c-2.652,3.182-2.222,7.911,0.96,10.563
		c1.542,1.285,3.446,1.84,5.301,1.715V344H119z M303.487,256h-95.975l27.5-33h40.975L303.487,256z M104,271v73H31.752
		c-9.135-23.111-14.646-47.678-16.247-73H104z M255.5,496c-64.24,0-124.635-25.016-170.059-70.441
		c-3.433-3.432-6.734-6.96-9.931-10.559h359.98c-3.198,3.599-6.499,7.127-9.931,10.559C380.135,470.984,319.74,496,255.5,496z"/>
	<path d="M143.5,240c-4.142,0-7.5,3.358-7.5,7.5v16c0,4.142,3.358,7.5,7.5,7.5s7.5-3.358,7.5-7.5v-16
		C151,243.358,147.642,240,143.5,240z"/>
	<path d="M167.5,240c-4.142,0-7.5,3.358-7.5,7.5v16c0,4.142,3.358,7.5,7.5,7.5s7.5-3.358,7.5-7.5v-16
		C175,243.358,171.642,240,167.5,240z"/>
	<path d="M143.5,288c-4.142,0-7.5,3.358-7.5,7.5v24c0,4.142,3.358,7.5,7.5,7.5s7.5-3.358,7.5-7.5v-24
		C151,291.358,147.642,288,143.5,288z"/>
	<path d="M167.5,288c-4.142,0-7.5,3.358-7.5,7.5v24c0,4.142,3.358,7.5,7.5,7.5s7.5-3.358,7.5-7.5v-24
		C175,291.358,171.642,288,167.5,288z"/>
	<path d="M55.5,327c4.142,0,7.5-3.358,7.5-7.5v-24c0-4.142-3.358-7.5-7.5-7.5s-7.5,3.358-7.5,7.5v24C48,323.642,51.358,327,55.5,327
		z"/>
	<path d="M39,319.5v-24c0-4.142-3.358-7.5-7.5-7.5s-7.5,3.358-7.5,7.5v24c0,4.142,3.358,7.5,7.5,7.5S39,323.642,39,319.5z"/>
	<path d="M79.5,327c4.142,0,7.5-3.358,7.5-7.5v-24c0-4.142-3.358-7.5-7.5-7.5s-7.5,3.358-7.5,7.5v24C72,323.642,75.358,327,79.5,327
		z"/>
	<path d="M231.5,288c-4.142,0-7.5,3.358-7.5,7.5v24c0,4.142,3.358,7.5,7.5,7.5s7.5-3.358,7.5-7.5v-24
		C239,291.358,235.642,288,231.5,288z"/>
	<path d="M255.5,288c-4.142,0-7.5,3.358-7.5,7.5v24c0,4.142,3.358,7.5,7.5,7.5s7.5-3.358,7.5-7.5v-24
		C263,291.358,259.642,288,255.5,288z"/>
	<path d="M279.5,288c-4.142,0-7.5,3.358-7.5,7.5v24c0,4.142,3.358,7.5,7.5,7.5s7.5-3.358,7.5-7.5v-24
		C287,291.358,283.642,288,279.5,288z"/>
	<path d="M343.5,327c4.142,0,7.5-3.358,7.5-7.5v-24c0-4.142-3.358-7.5-7.5-7.5s-7.5,3.358-7.5,7.5v24
		C336,323.642,339.358,327,343.5,327z"/>
	<path d="M367.5,327c4.142,0,7.5-3.358,7.5-7.5v-24c0-4.142-3.358-7.5-7.5-7.5s-7.5,3.358-7.5,7.5v24
		C360,323.642,363.358,327,367.5,327z"/>
	<path d="M391.5,327c4.142,0,7.5-3.358,7.5-7.5v-24c0-4.142-3.358-7.5-7.5-7.5s-7.5,3.358-7.5,7.5v24
		C384,323.642,387.358,327,391.5,327z"/>
	<path d="M447.5,304c-4.142,0-7.5,3.358-7.5,7.5v8c0,4.142,3.358,7.5,7.5,7.5s7.5-3.358,7.5-7.5v-8
		C455,307.358,451.642,304,447.5,304z"/>
	<path d="M471.5,304c-4.142,0-7.5,3.358-7.5,7.5v8c0,4.142,3.358,7.5,7.5,7.5s7.5-3.358,7.5-7.5v-8
		C479,307.358,475.642,304,471.5,304z"/>
	<path d="M343.5,271c4.142,0,7.5-3.358,7.5-7.5v-8c0-4.142-3.358-7.5-7.5-7.5s-7.5,3.358-7.5,7.5v8
		C336,267.642,339.358,271,343.5,271z"/>
	<path d="M367.5,271c4.142,0,7.5-3.358,7.5-7.5v-8c0-4.142-3.358-7.5-7.5-7.5s-7.5,3.358-7.5,7.5v8
		C360,267.642,363.358,271,367.5,271z"/>
	<path d="M391.5,271c4.142,0,7.5-3.358,7.5-7.5v-8c0-4.142-3.358-7.5-7.5-7.5s-7.5,3.358-7.5,7.5v8
		C384,267.642,387.358,271,391.5,271z"/>
</g>
</svg>