<svg id="Layer_1" data-name="Layer 1" xmlns="http://www.w3.org/2000/svg" viewBox="0 0 841.89 595.28"><defs><style>.cls-1{fill:#4b71b7;}</style></defs><polygon class="cls-1" points="703.85 326.38 700.81 328.17 565.18 328.17 419.77 182.75 346.33 256.19 274.35 328.17 137.41 328.17 135.21 326.88 158.02 304.07 205.88 256.19 419.77 42.3 681.76 304.29 703.85 326.38"/><polyline class="cls-1" points="531.22 328.17 459.23 256.19 420.69 256.19 419.77 255.26 418.85 256.19 380.3 256.19 308.32 328.17"/><polygon class="cls-1" points="531.22 328.17 308.32 328.17 380.3 256.19 459.23 256.19 531.22 328.17"/><path class="cls-1" d="M703.85,326.4A215.34,215.34,0,0,1,696.27,373c-8,28.76-20.49,49.92-26.41,59.8l-.25.42-32.3-32.3.34-.3,34.08-33.25v0Z"/><path class="cls-1" d="M703.85,326.4l-3,8.88-4.73-3.47-18.42,9.64-62.83,36.31-.42.26L588.2,351.8l.56-.11,90-18.94Z"/><path class="cls-1" d="M135.21,326.89a214.72,214.72,0,0,0,7.58,46.59c8,28.76,20.49,49.92,26.4,59.8.09.14.17.28.25.42l32.3-32.3-.33-.3-34.08-33.25v0Z"/><path class="cls-1" d="M135.21,326.89l3,8.88L143,332.3l18.41,9.64,62.84,36.32.42.25,26.21-26.22-.55-.11-90-18.94Z"/><polygon class="cls-1" points="634.88 113.7 634.88 256.19 633.65 256.19 563.74 186.26 563.74 113.7 634.88 113.7"/><path class="cls-1" d="M653.43,453.17q-10,9.29-20.75,17.77a343.38,343.38,0,0,1-425.54-.25q-10.75-8.51-20.75-17.8l12.52-12.52,19.49-19.49,27.31-27.31,32.91-32.88,1.53.31a240.49,240.49,0,0,0,22.62,14.05,243.61,243.61,0,0,0,258-14.58Z"/></svg>