<svg id="Layer_1" data-name="Layer 1" xmlns="http://www.w3.org/2000/svg" viewBox="0 0 841.89 595.28"><defs><style>.cls-1,.cls-2{fill:#4b71b7;}.cls-2{font-size:112.27px;font-family:FranklinGothic-Heavy, Franklin Gothic Heavy;font-weight:800;}.cls-3{letter-spacing:0.01em;}</style></defs><polygon class="cls-1" points="586.91 239.44 585.23 240.43 510.17 240.43 429.68 159.95 389.04 200.59 349.2 240.43 273.41 240.43 272.19 239.72 284.82 227.09 311.31 200.59 429.68 82.21 574.69 227.22 586.91 239.44"/><polyline class="cls-1" points="491.36 240.43 451.52 200.59 430.19 200.59 429.68 200.08 429.17 200.59 407.84 200.59 368 240.43"/><polygon class="cls-1" points="491.36 240.43 368 240.43 407.84 200.59 451.52 200.59 491.36 240.43"/><path class="cls-1" d="M586.91,239.45a119.41,119.41,0,0,1-4.19,25.79,133,133,0,0,1-14.62,33.09l-.14.23-17.87-17.87.18-.17,18.86-18.4h0Z"/><path class="cls-1" d="M586.91,239.45l-1.68,4.91-2.62-1.92-10.19,5.34-34.78,20.1-.23.14L522.9,253.51l.31-.06L573,243Z"/><path class="cls-1" d="M272.19,239.72a119.41,119.41,0,0,0,4.19,25.79A132.83,132.83,0,0,0,291,298.6l.14.24L309,281l-.18-.17L290,262.39h0Z"/><path class="cls-1" d="M272.19,239.72l1.68,4.91,2.62-1.92,10.19,5.34,34.77,20.1.24.14,14.51-14.51-.31-.06-49.8-10.48Z"/><polygon class="cls-1" points="548.74 121.73 548.74 200.59 548.06 200.59 509.36 161.89 509.36 121.73 548.74 121.73"/><path class="cls-1" d="M559,309.61q-5.52,5.14-11.48,9.84A190.05,190.05,0,0,1,312,319.31q-6-4.71-11.48-9.85l6.93-6.93,10.79-10.79,15.11-15.11,18.21-18.2.85.17a132.79,132.79,0,0,0,12.52,7.78A134.85,134.85,0,0,0,507.7,258.3Z"/><text class="cls-2" transform="translate(152.81 478.64) rotate(-0.08)"><tspan class="cls-3">S</tspan><tspan x="69.07" y="0">TONEHnH</tspan></text></svg>