<svg id="Layer_1" data-name="Layer 1" xmlns="http://www.w3.org/2000/svg" viewBox="0 0 841.89 595.28"><defs><style>.cls-1,.cls-2{fill:#4b71b7;}.cls-2{font-size:94.18px;font-family:FranklinGothic-Heavy, Franklin Gothic Heavy;font-weight:800;}.cls-3{letter-spacing:0.01em;}</style></defs><polygon class="cls-1" points="297.45 297.04 296.13 297.82 237.35 297.82 174.32 234.79 142.49 266.62 111.29 297.82 51.94 297.82 50.98 297.26 60.87 287.37 81.61 266.62 174.32 173.91 287.88 287.47 297.45 297.04"/><polyline class="cls-1" points="222.63 297.82 191.43 266.62 174.72 266.62 174.32 266.22 173.92 266.62 157.22 266.62 126.02 297.82"/><polygon class="cls-1" points="222.63 297.82 126.02 297.82 157.22 266.62 191.43 266.62 222.63 297.82"/><path class="cls-1" d="M297.45,297.05a92.56,92.56,0,0,1-3.29,20.19,104,104,0,0,1-11.44,25.92l-.11.18-14-14,.15-.14,14.77-14.41h0Z"/><path class="cls-1" d="M297.45,297.05l-1.31,3.85-2.06-1.51-8,4.18-27.23,15.74-.18.11-11.37-11.36.25-.05,39-8.21Z"/><path class="cls-1" d="M51,297.26a93.39,93.39,0,0,0,3.29,20.2,104.32,104.32,0,0,0,11.44,25.92l.11.18,14-14-.15-.13L64.9,315v0Z"/><path class="cls-1" d="M51,297.26l1.32,3.85,2.05-1.5,8,4.18,27.23,15.74.18.1,11.37-11.36-.24,0-39-8.2Z"/><polygon class="cls-1" points="267.56 204.86 267.56 266.62 267.02 266.62 236.72 236.31 236.72 204.86 267.56 204.86"/><path class="cls-1" d="M275.6,352c-2.89,2.68-5.89,5.26-9,7.7a148.83,148.83,0,0,1-184.44-.11q-4.66-3.69-9-7.71l5.43-5.43L87,338l11.84-11.84,14.26-14.25.67.13a103.56,103.56,0,0,0,9.8,6.1,105.67,105.67,0,0,0,111.8-6.32Z"/><text class="cls-2" transform="translate(332.03 392.49) rotate(-0.08)"><tspan class="cls-3">S</tspan><tspan x="57.94" y="0">TONEHnH</tspan></text></svg>